<?xml version="1.0" encoding="utf-8"?>
<!-- Generator: Adobe Illustrator 22.0.1, SVG Export Plug-In . SVG Version: 6.00 Build 0)  -->
<svg version="1.1" id="Layer_1" xmlns="http://www.w3.org/2000/svg" xmlns:xlink="http://www.w3.org/1999/xlink" x="0px" y="0px"
	 viewBox="0 0 485 485" style="enable-background:new 0 0 485 485;" xml:space="preserve">
<g>
	<g>
		<g>
			<path d="M372.5,0h-260C51.8,0,2.5,49.3,2.5,110v175c0,60.7,49.3,110,110,110h40v80c0,3.8,2.1,7.3,5.5,8.9
				c1.4,0.7,2.9,1.1,4.5,1.1c2.1,0,4.2-0.7,6-2l117.3-88h86.7c60.7,0,110-49.3,110-110V110C482.5,49.3,433.2,0,372.5,0z M462.5,285
				c0,49.6-40.4,90-90,90h-90c-2.2,0-4.3,0.7-6,2l-104,78v-70c0-5.5-4.5-10-10-10h-50c-49.6,0-90-40.4-90-90V110
				c0-49.6,40.4-90,90-90h260c49.6,0,90,40.4,90,90V285z"/>
			<path d="M272.2,233.3C272.1,233.3,272.1,233.3,272.2,233.3c-3.9-3.8-8.9-5.9-14.2-5.9c-5.3,0-10.4,2.1-14.1,5.9l-14.1,14.1
				l-42.4-42.4l14.1-14.1c3.8-3.8,5.9-8.8,5.9-14.2c0-5.4-2.1-10.4-5.9-14.2l-49.5-49.5c-3.8-3.8-8.8-5.9-14.1-5.9
				s-10.3,2.1-14.1,5.9l-46,46c-2.2,2.2-3.2,5.3-2.8,8.3c0.2,1.9,6.8,48.1,75.6,116.9c68.7,68.8,115,75.3,116.9,75.6
				c0.4,0.1,0.8,0.1,1.2,0.1c2.6,0,5.2-1,7.1-2.9l10.5-10.6l35.3-35.3c3.8-3.8,6-8.8,6-14.2c0-5.4-2.1-10.4-6-14.2L272.2,233.3z
				 M307.4,297l-42,42c-12.3-3.3-49-16.9-100.8-68.9c-51.4-51.4-65.4-88.5-68.9-100.9l42.1-42.1l49.5,49.6L166,198
				c-1.9,1.9-2.9,4.4-2.9,7.1c0,2.7,1.1,5.2,2.9,7.1l56.6,56.5c3.9,3.9,10.2,3.9,14.1,0l21.2-21.2c0,0,0.1,0,0.1,0.1L307.4,297
				C307.4,297,307.4,297,307.4,297C307.4,297,307.4,297,307.4,297z"/>
			<path d="M237.5,100v20c49.6,0,90,40.4,90,90h20C347.5,149.3,298.2,100,237.5,100z"/>
			<path d="M282.5,205h20c0-35.8-29.2-65-65-65v20C262.3,160,282.5,180.2,282.5,205z"/>
			<path d="M237.5,60v20c74.4,0,135,60.6,135,135h20C392.5,129.5,323,60,237.5,60z"/>
		</g>
	</g>
</g>
</svg>
