<?xml version="1.0" encoding="UTF-8"?><!DOCTYPE svg PUBLIC "-//W3C//DTD SVG 1.1//EN" "http://www.w3.org/Graphics/SVG/1.1/DTD/svg11.dtd"><svg xmlns="http://www.w3.org/2000/svg"><symbol id="icon-envelope" viewBox="0 0 483.3 483.3">
    <path d="M424.3 57.75H59.1c-32.6 0-59.1 26.5-59.1 59.1v249.6c0 32.6 26.5 59.1 59.1 59.1h365.1c32.6 0 59.1-26.5 59.1-59.1v-249.5c.1-32.6-26.4-59.2-59-59.2zm32.1 308.7c0 17.7-14.4 32.1-32.1 32.1H59.1c-17.7 0-32.1-14.4-32.1-32.1v-249.5c0-17.7 14.4-32.1 32.1-32.1h365.1c17.7 0 32.1 14.4 32.1 32.1v249.5h.1z"/>
    <path d="M304.8 238.55l118.2-106c5.5-5 6-13.5 1-19.1-5-5.5-13.5-6-19.1-1l-163 146.3-31.8-28.4c-.1-.1-.2-.2-.2-.3-.7-.7-1.4-1.3-2.2-1.9L78.3 112.35c-5.6-5-14.1-4.5-19.1 1.1-5 5.6-4.5 14.1 1.1 19.1l119.6 106.9-119.1 111.5c-5.4 5.1-5.7 13.6-.6 19.1 2.7 2.8 6.3 4.3 9.9 4.3 3.3 0 6.6-1.2 9.2-3.6l120.9-113.1 32.8 29.3c2.6 2.3 5.8 3.4 9 3.4s6.5-1.2 9-3.5l33.7-30.2 120.2 114.2c2.6 2.5 6 3.7 9.3 3.7 3.6 0 7.1-1.4 9.8-4.2 5.1-5.4 4.9-14-.5-19.1l-118.7-112.7z"/>
</symbol><symbol id="icon-facebook" viewBox="0 0 96.124 96.123">
    <path d="M72.089.02L59.624 0C45.62 0 36.57 9.285 36.57 23.656v10.907H24.037a1.96 1.96 0 0 0-1.96 1.961v15.803a1.96 1.96 0 0 0 1.96 1.96H36.57v39.876a1.96 1.96 0 0 0 1.96 1.96h16.352a1.96 1.96 0 0 0 1.96-1.96V54.287h14.654a1.96 1.96 0 0 0 1.96-1.96l.006-15.803a1.963 1.963 0 0 0-1.961-1.961H56.842v-9.246c0-4.444 1.059-6.7 6.848-6.7l8.397-.003a1.96 1.96 0 0 0 1.959-1.96V1.98A1.96 1.96 0 0 0 72.089.02z"/>
</symbol><symbol id="icon-instagram" viewBox="0 0 512 512">
    <path d="M75 512h362c41.355 0 75-33.645 75-75V75c0-41.355-33.645-75-75-75H75C33.645 0 0 33.645 0 75v362c0 41.355 33.645 75 75 75zM30 75c0-24.813 20.188-45 45-45h362c24.813 0 45 20.188 45 45v362c0 24.813-20.188 45-45 45H75c-24.813 0-45-20.188-45-45zm0 0"/>
    <path d="M256 391c74.438 0 135-60.563 135-135s-60.563-135-135-135-135 60.563-135 135 60.563 135 135 135zm0-240c57.898 0 105 47.102 105 105s-47.102 105-105 105-105-47.102-105-105 47.102-105 105-105zm0 0"/>
    <path d="M406 151c24.813 0 45-20.188 45-45s-20.188-45-45-45-45 20.188-45 45 20.188 45 45 45zm0-60c8.27 0 15 6.73 15 15s-6.73 15-15 15-15-6.73-15-15 6.73-15 15-15zm0 0"/>
</symbol><symbol id="icon-telegram" viewBox="1 -35 511.99993 511">
    <path d="M121.453 253.172l63.555 158.887 82.75-82.754 141.535 112.504L512 .5 0 205.98zm-39.933-47.64l244.046-97.946-194.074 117.363zm287.535-89.25l-161.98 148.187-19.485 73.426-36.035-90.086zm-149.852 219.23l9.817-36.996 15.144 12.035zm171.656 53.394L243.473 271.754 465.375 68.746zm0 0"/>
</symbol><symbol id="icon-viber" viewBox="0 0 485 485">
    <path d="M372.5 0h-260C51.8 0 2.5 49.3 2.5 110v175c0 60.7 49.3 110 110 110h40v80c0 3.8 2.1 7.3 5.5 8.9 1.4.7 2.9 1.1 4.5 1.1 2.1 0 4.2-.7 6-2l117.3-88h86.7c60.7 0 110-49.3 110-110V110c0-60.7-49.3-110-110-110zm90 285c0 49.6-40.4 90-90 90h-90c-2.2 0-4.3.7-6 2l-104 78v-70c0-5.5-4.5-10-10-10h-50c-49.6 0-90-40.4-90-90V110c0-49.6 40.4-90 90-90h260c49.6 0 90 40.4 90 90v175z"/>
    <path d="M272.2 233.3c-.1 0-.1 0 0 0-3.9-3.8-8.9-5.9-14.2-5.9-5.3 0-10.4 2.1-14.1 5.9l-14.1 14.1-42.4-42.4 14.1-14.1c3.8-3.8 5.9-8.8 5.9-14.2 0-5.4-2.1-10.4-5.9-14.2L152 113c-3.8-3.8-8.8-5.9-14.1-5.9s-10.3 2.1-14.1 5.9l-46 46c-2.2 2.2-3.2 5.3-2.8 8.3.2 1.9 6.8 48.1 75.6 116.9 68.7 68.8 115 75.3 116.9 75.6.4.1.8.1 1.2.1 2.6 0 5.2-1 7.1-2.9l10.5-10.6 35.3-35.3c3.8-3.8 6-8.8 6-14.2 0-5.4-2.1-10.4-6-14.2l-49.4-49.4zm35.2 63.7l-42 42c-12.3-3.3-49-16.9-100.8-68.9-51.4-51.4-65.4-88.5-68.9-100.9l42.1-42.1 49.5 49.6L166 198c-1.9 1.9-2.9 4.4-2.9 7.1 0 2.7 1.1 5.2 2.9 7.1l56.6 56.5c3.9 3.9 10.2 3.9 14.1 0l21.2-21.2s.1 0 .1.1l49.4 49.4z"/>
    <path d="M237.5 100v20c49.6 0 90 40.4 90 90h20c0-60.7-49.3-110-110-110z"/>
    <path d="M282.5 205h20c0-35.8-29.2-65-65-65v20c24.8 0 45 20.2 45 45z"/>
    <path d="M237.5 60v20c74.4 0 135 60.6 135 135h20c0-85.5-69.5-155-155-155z"/>
</symbol><symbol id="icon-whatsapp" viewBox="0 0 512 512">
    <path d="M439.277 72.723C392.38 25.824 330.04 0 263.711 0h-.023c-32.805.004-64.774 6.355-95.012 18.883-30.242 12.527-57.336 30.64-80.535 53.84-46.895 46.894-72.72 109.246-72.72 175.566 0 39.55 9.544 78.856 27.626 113.875L1.313 481.391c-2.942 8.41-.86 17.55 5.445 23.851C11.168 509.656 16.973 512 22.94 512c2.559 0 5.145-.43 7.668-1.313l119.227-41.73c35.02 18.082 74.324 27.625 113.875 27.625 66.32 0 128.668-25.828 175.566-72.723C486.172 376.965 512 314.613 512 248.293c0-66.324-25.824-128.676-72.723-175.57zm-21.234 329.902c-41.223 41.227-96.035 63.926-154.332 63.926-35.664 0-71.094-8.82-102.461-25.516-5.687-3.023-12.41-3.543-18.445-1.43l-108.32 37.91 37.913-108.32c2.114-6.043 1.59-12.765-1.433-18.449-16.692-31.36-25.516-66.789-25.516-102.457 0-58.297 22.703-113.11 63.926-154.332 41.219-41.219 96.023-63.922 154.316-63.93h.02c58.3 0 113.11 22.703 154.332 63.93 41.227 41.223 63.93 96.031 63.93 154.332 0 58.3-22.703 113.113-63.93 154.336zm0 0"/>
    <path d="M355.984 270.469c-11.421-11.422-30.007-11.422-41.43 0l-12.491 12.492c-31.02-16.902-56.122-42.004-73.028-73.024l12.492-12.492c11.426-11.422 11.426-30.007 0-41.43l-33.664-33.663c-11.422-11.422-30.008-11.422-41.43 0l-26.93 26.93c-15.425 15.425-16.194 41.945-2.167 74.675 12.18 28.418 34.469 59.652 62.762 87.945 28.293 28.293 59.527 50.582 87.945 62.762 15.55 6.664 29.695 9.988 41.918 9.988 13.504 0 24.66-4.058 32.758-12.156l26.93-26.934v.004c5.535-5.535 8.581-12.89 8.581-20.714 0-7.829-3.046-15.184-8.582-20.715zm-14.5 80.793c-4.402 4.402-17.941 5.945-41.609-4.196-24.992-10.71-52.887-30.742-78.543-56.398s-45.684-53.547-56.394-78.54c-10.145-23.667-8.602-37.21-4.2-41.612l26.414-26.414 32.625 32.628-15.636 15.641c-7.07 7.07-8.778 17.793-4.243 26.684 20.559 40.312 52.735 72.488 93.047 93.047 8.895 4.535 19.618 2.832 26.688-4.243l15.637-15.636 32.628 32.629zm0 0"/>
</symbol></svg>